
<svg xmlns="http://www.w3.org/2000/svg" viewBox="0 0 128 128"><defs><style>.cls-1{fill:#2d3e50}.cls-2{fill:#2e79bd}</style></defs><path class="cls-1" d="M99 25.4h24a3.5 3.5 0 000-7H99a3.5 3.5 0 100 7zM82 18.4H56.5a3.5 3.5 0 000 7H82a3.5 3.5 0 000-7zM5.6 38.1H31a3.5 3.5 0 003.5-3.5V9.1A3.5 3.5 0 0031 5.6H5.6A3.5 3.5 0 002 9.1v25.5a3.5 3.5 0 003.5 3.5zM9 12.6h18.4v18.5H9.1zM123 102.6H99a3.5 3.5 0 100 7h24a3.5 3.5 0 000-7zM82 102.6H56.5a3.5 3.5 0 100 7H82a3.5 3.5 0 000-7zM31 89.9H5.6A3.5 3.5 0 002 93.4v25.5a3.5 3.5 0 003.5 3.5H31a3.5 3.5 0 003.5-3.5V93.4a3.5 3.5 0 00-3.5-3.5zm-3.5 25.5H9.1V96.9h18.4z"/><path class="cls-2" d="M123 60.5H99a3.5 3.5 0 100 7h24a3.5 3.5 0 000-7zM82 60.5H56.5a3.5 3.5 0 000 7H82a3.5 3.5 0 000-7zM34 52.7a3.6 3.6 0 00-5 0l-15 15-6.4-6.3a3.6 3.6 0 10-5 5l8.8 9a3.6 3.6 0 005 0l17.7-17.7a3.6 3.6 0 000-5z"/></svg>
